<svg width="84" height="47" viewBox="0 0 84 47" fill="none" xmlns="http://www.w3.org/2000/svg">
<path d="M27.4296 1.84143H30.4907V31.6868H27.4296V1.84143ZM12.6982 22.8863C12.6982 20.9731 13.0936 19.3405 13.8844 17.9886C14.6752 16.6111 15.7338 15.5525 17.0603 14.8127C18.3867 14.0729 19.8407 13.7031 21.4223 13.7031C22.9018 13.7031 24.19 14.0729 25.2869 14.8127C26.3838 15.5525 27.2383 16.6111 27.8505 17.9886C28.4882 19.3405 28.8071 20.9731 28.8071 22.8863C28.8071 24.7739 28.4882 26.4065 27.8505 27.784C27.2383 29.1615 26.3838 30.2201 25.2869 30.9598C24.19 31.6996 22.9018 32.0695 21.4223 32.0695C19.8407 32.0695 18.3867 31.6996 17.0603 30.9598C15.7338 30.2201 14.6752 29.1615 13.8844 27.784C13.0936 26.4065 12.6982 24.7739 12.6982 22.8863ZM15.7976 22.8863C15.7976 24.2382 16.0654 25.3861 16.6011 26.33C17.1623 27.2738 17.9021 27.9881 18.8204 28.4727C19.7387 28.9574 20.7335 29.1997 21.8049 29.1997C22.6977 29.1997 23.5778 28.9574 24.4451 28.4727C25.3124 27.9881 26.0266 27.2738 26.5878 26.33C27.149 25.3861 27.4296 24.2382 27.4296 22.8863C27.4296 21.5343 27.149 20.3864 26.5878 19.4426C26.0266 18.4987 25.3124 17.7845 24.4451 17.2998C23.5778 16.8152 22.6977 16.5728 21.8049 16.5728C20.7335 16.5728 19.7387 16.8152 18.8204 17.2998C17.9021 17.7845 17.1623 18.4987 16.6011 19.4426C16.0654 20.3864 15.7976 21.5343 15.7976 22.8863Z" fill="#3D1A15"/>
<path d="M37.4283 26.2534C37.4283 26.9167 37.5814 27.4906 37.8875 27.9753C38.2191 28.46 38.6655 28.8298 39.2267 29.0849C39.8134 29.3145 40.4766 29.4293 41.2164 29.4293C42.1602 29.4293 43.002 29.238 43.7418 28.8554C44.507 28.4727 45.1065 27.937 45.5401 27.2483C45.9993 26.534 46.2289 25.7178 46.2289 24.7994L46.8411 27.0952C46.8411 28.2176 46.4967 29.1487 45.808 29.8885C45.1448 30.6282 44.3157 31.1767 43.3209 31.5338C42.3515 31.8909 41.3822 32.0695 40.4129 32.0695C39.3415 32.0695 38.3339 31.8526 37.3901 31.419C36.4717 30.9598 35.732 30.3094 35.1708 29.4676C34.6096 28.6258 34.329 27.6054 34.329 26.4065C34.329 24.6974 34.9284 23.3327 36.1274 22.3123C37.3518 21.2665 39.0481 20.7435 41.2164 20.7435C42.4918 20.7435 43.5505 20.8966 44.3922 21.2027C45.2596 21.4833 45.9483 21.8149 46.4585 22.1975C46.9686 22.5547 47.313 22.848 47.4916 23.0776V24.876C46.5988 24.2637 45.6804 23.8301 44.7366 23.575C43.7928 23.2944 42.7852 23.1541 41.7138 23.1541C40.719 23.1541 39.9027 23.2817 39.265 23.5367C38.6527 23.7918 38.1936 24.149 37.8875 24.6081C37.5814 25.0673 37.4283 25.6157 37.4283 26.2534ZM36.9692 18.1416L35.4769 15.8841C36.1401 15.3994 37.0457 14.9147 38.1936 14.4301C39.367 13.9454 40.77 13.7031 42.4026 13.7031C43.78 13.7031 44.979 13.9199 45.9993 14.3535C47.0452 14.7617 47.8487 15.3611 48.4099 16.1519C48.9966 16.9427 49.29 17.912 49.29 19.0599V31.6868H46.2289V19.4808C46.2289 18.8686 46.1269 18.3712 45.9228 17.9886C45.7187 17.5804 45.4254 17.2616 45.0427 17.032C44.6856 16.8024 44.2647 16.6366 43.78 16.5346C43.2954 16.4325 42.7852 16.3815 42.2495 16.3815C41.3822 16.3815 40.5914 16.4835 39.8772 16.6876C39.1884 16.8917 38.6017 17.134 38.1171 17.4146C37.6324 17.6952 37.2498 17.9375 36.9692 18.1416Z" fill="#3D1A15"/>
<path d="M57.4659 43.9789L54.4048 43.9789L54.4048 14.1335L57.4659 14.1335L57.4659 43.9789ZM72.1973 22.9341C72.1973 24.8472 71.8019 26.4798 71.0111 27.8318C70.2203 29.2093 69.1617 30.2679 67.8352 31.0076C66.5088 31.7474 65.0548 32.1173 63.4732 32.1173C61.9937 32.1173 60.7055 31.7474 59.6086 31.0076C58.5117 30.2679 57.6572 29.2093 57.045 27.8318C56.4073 26.4798 56.0884 24.8472 56.0884 22.9341C56.0884 21.0464 56.4073 19.4138 57.045 18.0364C57.6572 16.6589 58.5117 15.6003 59.6086 14.8605C60.7055 14.1207 61.9937 13.7509 63.4732 13.7509C65.0548 13.7509 66.5088 14.1207 67.8352 14.8605C69.1617 15.6003 70.2203 16.6589 71.0111 18.0364C71.8019 19.4138 72.1973 21.0464 72.1973 22.9341ZM69.0979 22.9341C69.0979 21.5821 68.8301 20.4342 68.2944 19.4904C67.7332 18.5465 66.9935 17.8323 66.0751 17.3476C65.1568 16.863 64.162 16.6206 63.0906 16.6206C62.1978 16.6206 61.3177 16.863 60.4504 17.3476C59.5831 17.8323 58.8689 18.5465 58.3077 19.4904C57.7465 20.4342 57.4659 21.5821 57.4659 22.9341C57.4659 24.286 57.7465 25.4339 58.3077 26.3778C58.8689 27.3216 59.5831 28.0359 60.4504 28.5205C61.3177 29.0052 62.1978 29.2475 63.0906 29.2475C64.162 29.2475 65.1568 29.0052 66.0751 28.5205C66.9935 28.0359 67.7332 27.3216 68.2944 26.3778C68.8301 25.4339 69.0979 24.286 69.0979 22.9341Z" fill="#3D1A15"/>
<path d="M82.5 23.0178C82.5 28.5714 78.3727 33.9256 70.9776 37.9784C63.6376 42.001 53.3954 44.5356 42 44.5356C30.6046 44.5356 20.3624 42.001 13.0224 37.9784C5.62731 33.9256 1.5 28.5714 1.5 23.0178C1.5 17.4642 5.62731 12.11 13.0224 8.05717C20.3624 4.03456 30.6046 1.5 42 1.5C53.3954 1.5 63.6376 4.03456 70.9776 8.05717C78.3727 12.11 82.5 17.4642 82.5 23.0178Z" stroke="#3D1A15" stroke-width="3"/>
</svg>
